<?xml version="1.0" encoding="UTF-8" standalone="no" ?>
<!DOCTYPE svg PUBLIC "-//W3C//DTD SVG 1.1//EN" "http://www.w3.org/Graphics/SVG/1.1/DTD/svg11.dtd">
<svg xmlns="http://www.w3.org/2000/svg" xmlns:xlink="http://www.w3.org/1999/xlink" version="1.1" width="900" height="600" viewBox="0 0 900 600" xml:space="preserve">
<desc>Created with Fabric.js 4.6.0</desc>
<defs>
</defs>
<g transform="matrix(2.88 0 0 2.88 450 300)" id="MhzCyBa0p88rQMisSX6ns"  >
<g style="" vector-effect="non-scaling-stroke"   >
		<g transform="matrix(1.12 0 0 1.12 -64.7 71.57)" id="mEj-S33bWB7a_gqUhKEjL"  >
<path style="stroke: none; stroke-width: 1; stroke-dasharray: none; stroke-linecap: butt; stroke-dashoffset: 0; stroke-linejoin: miter; stroke-miterlimit: 4; fill: rgb(241,81,86); fill-rule: nonzero; opacity: 1;" vector-effect="non-scaling-stroke"  transform=" translate(-78.14, 17.62)" d="M 19.15 -26.21 Q 23.95 -26.21 26.9 -23.33 Q 29.86 -20.45 29.86 -14.78 L 29.86 -14.78 L 29.86 0 L 22.37 0 L 22.37 -13.63 Q 22.37 -16.7 21.02 -18.22 Q 19.68 -19.73 17.14 -19.73 L 17.14 -19.73 Q 14.3 -19.73 12.62 -17.98 Q 10.94 -16.22 10.94 -12.77 L 10.94 -12.77 L 10.94 0 L 3.46 0 L 3.46 -35.62 L 10.94 -35.62 L 10.94 -23.14 Q 12.43 -24.62 14.54 -25.42 Q 16.66 -26.21 19.15 -26.21 L 19.15 -26.21 Z M 49.196 0.38 Q 45.116 0.38 41.876 -1.32 Q 38.635999999999996 -3.02 36.815999999999995 -6.05 Q 34.995999999999995 -9.07 34.995999999999995 -12.91 L 34.995999999999995 -12.91 Q 34.995999999999995 -16.75 36.815999999999995 -19.78 Q 38.635999999999996 -22.8 41.876 -24.5 Q 45.116 -26.21 49.196 -26.21 L 49.196 -26.21 Q 53.275999999999996 -26.21 56.495999999999995 -24.5 Q 59.715999999999994 -22.8 61.535999999999994 -19.78 Q 63.355999999999995 -16.75 63.355999999999995 -12.91 L 63.355999999999995 -12.91 Q 63.355999999999995 -9.07 61.535999999999994 -6.05 Q 59.715999999999994 -3.02 56.495999999999995 -1.32 Q 53.275999999999996 0.38 49.196 0.38 L 49.196 0.38 Z M 49.196 -5.76 Q 52.07599999999999 -5.76 53.925999999999995 -7.7 Q 55.775999999999996 -9.65 55.775999999999996 -12.91 L 55.775999999999996 -12.91 Q 55.775999999999996 -16.18 53.925999999999995 -18.12 Q 52.07599999999999 -20.06 49.196 -20.06 L 49.196 -20.06 Q 46.315999999999995 -20.06 44.446 -18.12 Q 42.57599999999999 -16.18 42.57599999999999 -12.91 L 42.57599999999999 -12.91 Q 42.57599999999999 -9.65 44.446 -7.7 Q 46.315999999999995 -5.76 49.196 -5.76 L 49.196 -5.76 Z M 68.356 0 L 68.356 -35.62 L 75.836 -35.62 L 75.836 0 L 68.356 0 Z M 82.80399999999999 0 L 82.80399999999999 -35.62 L 90.28399999999999 -35.62 L 90.28399999999999 0 L 82.80399999999999 0 Z M 122.542 -12.82 Q 122.542 -12.67 122.402 -10.8 L 122.402 -10.8 L 102.862 -10.8 Q 103.392 -8.4 105.362 -7.01 Q 107.332 -5.62 110.25200000000001 -5.62 L 110.25200000000001 -5.62 Q 112.272 -5.62 113.832 -6.22 Q 115.392 -6.82 116.732 -8.11 L 116.732 -8.11 L 120.72200000000001 -3.79 Q 117.072 0.38 110.062 0.38 L 110.062 0.38 Q 105.69200000000001 0.38 102.332 -1.32 Q 98.97200000000001 -3.02 97.152 -6.05 Q 95.33200000000001 -9.07 95.33200000000001 -12.91 L 95.33200000000001 -12.91 Q 95.33200000000001 -16.7 97.132 -19.75 Q 98.932 -22.8 102.072 -24.5 Q 105.212 -26.21 109.102 -26.21 L 109.102 -26.21 Q 112.892 -26.21 115.97200000000001 -24.58 Q 119.042 -22.94 120.792 -19.9 Q 122.542 -16.85 122.542 -12.82 L 122.542 -12.82 Z M 109.152 -20.54 Q 106.612 -20.54 104.882 -19.1 Q 103.152 -17.66 102.772 -15.17 L 102.772 -15.17 L 115.492 -15.17 Q 115.102 -17.62 113.372 -19.08 Q 111.652 -20.54 109.152 -20.54 L 109.152 -20.54 Z M 152.82999999999998 -12.82 Q 152.82999999999998 -12.67 152.69 -10.8 L 152.69 -10.8 L 133.14999999999998 -10.8 Q 133.67999999999998 -8.4 135.64999999999998 -7.01 Q 137.61999999999998 -5.62 140.54 -5.62 L 140.54 -5.62 Q 142.55999999999997 -5.62 144.11999999999998 -6.22 Q 145.67999999999998 -6.82 147.01999999999998 -8.11 L 147.01999999999998 -8.11 L 151.01 -3.79 Q 147.35999999999999 0.38 140.35 0.38 L 140.35 0.38 Q 135.98 0.38 132.61999999999998 -1.32 Q 129.26 -3.02 127.43999999999998 -6.05 Q 125.61999999999999 -9.07 125.61999999999999 -12.91 L 125.61999999999999 -12.91 Q 125.61999999999999 -16.7 127.41999999999999 -19.75 Q 129.21999999999997 -22.8 132.35999999999999 -24.5 Q 135.49999999999997 -26.21 139.39 -26.21 L 139.39 -26.21 Q 143.17999999999998 -26.21 146.26 -24.58 Q 149.32999999999998 -22.94 151.07999999999998 -19.9 Q 152.82999999999998 -16.85 152.82999999999998 -12.82 L 152.82999999999998 -12.82 Z M 139.44 -20.54 Q 136.89999999999998 -20.54 135.17 -19.1 Q 133.44 -17.66 133.05999999999997 -15.17 L 133.05999999999997 -15.17 L 145.77999999999997 -15.17 Q 145.39 -17.62 143.65999999999997 -19.08 Q 141.94 -20.54 139.44 -20.54 L 139.44 -20.54 Z" stroke-linecap="round" />
</g>
		<g transform="matrix(1.24 0 0 1.24 -1.5 -27.27)" id="bAQY3Eza_ESSrxDenaJ9E"  >
<path style="stroke: none; stroke-width: 1; stroke-dasharray: none; stroke-linecap: butt; stroke-dashoffset: 0; stroke-linejoin: miter; stroke-miterlimit: 4; fill: rgb(5,32,74); fill-rule: nonzero; opacity: 1;" vector-effect="non-scaling-stroke"  transform=" translate(-50, -50)" d="M 50 50 M 0 50 C 0 77.61423749153967 22.385762508460328 100 50 100 C 77.61423749153967 100 100 77.61423749153967 100 50 C 100 22.385762508460328 77.61423749153967 0 50 0 C 22.38576250846033 0 0 22.38576250846032 0 49.99999999999999" stroke-linecap="round" />
</g>
		<g transform="matrix(2.27 0 0 2.27 -1.5 -27.03)" id="2nBkv6Al2LtwWAnFTeyPK"  >
<path style="stroke: none; stroke-width: 1; stroke-dasharray: none; stroke-linecap: butt; stroke-dashoffset: 0; stroke-linejoin: miter; stroke-miterlimit: 4; fill: rgb(241,81,86); fill-rule: nonzero; opacity: 1;" vector-effect="non-scaling-stroke"  transform=" translate(-40, -40)" d="M 40 68.5 C 24.3 68.5 11.5 55.7 11.5 40 C 11.5 24.299999999999997 24.3 11.5 40 11.5 C 55.7 11.5 68.5 24.3 68.5 40 C 68.5 55.7 55.7 68.5 40 68.5 z M 40 13.5 C 25.4 13.5 13.5 25.4 13.5 40 C 13.5 54.6 25.4 66.5 40 66.5 C 54.6 66.5 66.5 54.6 66.5 40 C 66.5 25.4 54.6 13.5 40 13.5 z" stroke-linecap="round" />
</g>
		<g transform="matrix(0.15 0 0 0.15 -40.99 -8.74)" id="8Anj-gmGrhdv5PLKFrU-g"  >
<path style="stroke: none; stroke-width: 1; stroke-dasharray: none; stroke-linecap: butt; stroke-dashoffset: 0; stroke-linejoin: miter; stroke-miterlimit: 4; fill: rgb(241,81,86); fill-rule: nonzero; opacity: 1;" vector-effect="non-scaling-stroke"  transform=" translate(-245.66, -671.62)" d="M 251.371 658.598 L 232.63 665.5799999999999 C 235.018 671.9899999999999 237.65 678.406 240.452 684.65 L 258.699 676.462 C 256.074 670.612 253.608 664.602 251.371 658.598 z" stroke-linecap="round" />
</g>
		<g transform="matrix(0.15 0 0 0.15 -44.33 -25.86)" id="UE3vEnomJ4-7Z3p7_ujsq"  >
<path style="stroke: none; stroke-width: 1; stroke-dasharray: none; stroke-linecap: butt; stroke-dashoffset: 0; stroke-linejoin: miter; stroke-miterlimit: 4; fill: rgb(241,81,86); fill-rule: nonzero; opacity: 1;" vector-effect="non-scaling-stroke"  transform=" translate(-222.75, -554.44)" d="M 232.667 554.324 C 232.667 551.151 232.718 547.93 232.817 544.752 L 212.827 544.125 C 212.721 547.511 212.667 550.942 212.667 554.324 C 212.667 557.7919999999999 212.723 561.3009999999999 212.834 564.752 L 232.823 564.1089999999999 C 232.72 560.871 232.667 557.579 232.667 554.324 z" stroke-linecap="round" />
</g>
		<g transform="matrix(0.15 0 0 0.15 -43.95 -20)" id="ADyz1Y__zI20KrVwMlpKX"  >
<path style="stroke: none; stroke-width: 1; stroke-dasharray: none; stroke-linecap: butt; stroke-dashoffset: 0; stroke-linejoin: miter; stroke-miterlimit: 4; fill: rgb(241,81,86); fill-rule: nonzero; opacity: 1;" vector-effect="non-scaling-stroke"  transform=" translate(-225.35, -594.61)" d="M 234.065 583.416 L 214.158 585.34 C 214.81799999999998 592.167 215.70899999999997 599.052 216.80499999999998 605.8040000000001 L 236.546 602.5970000000001 C 235.519 596.27 234.684 589.815 234.065 583.416 z" stroke-linecap="round" />
</g>
		<g transform="matrix(0.15 0 0 0.15 -38.43 -3.51)" id="E6t7PagBqx4wNypfvRo9b"  >
<path style="stroke: none; stroke-width: 1; stroke-dasharray: none; stroke-linecap: butt; stroke-dashoffset: 0; stroke-linejoin: miter; stroke-miterlimit: 4; fill: rgb(241,81,86); fill-rule: nonzero; opacity: 1;" vector-effect="non-scaling-stroke"  transform=" translate(-263.13, -707.45)" d="M 267.176 693.821 L 249.499 703.176 C 252.698 709.221 256.141 715.245 259.73 721.08 L 276.764 710.6 C 273.4 705.132 270.174 699.486 267.176 693.821 z" stroke-linecap="round" />
</g>
		<g transform="matrix(0.15 0 0 0.15 -35.22 1.35)" id="ssai37z6Ib5KR0zz4Y435"  >
<path style="stroke: none; stroke-width: 1; stroke-dasharray: none; stroke-linecap: butt; stroke-dashoffset: 0; stroke-linejoin: miter; stroke-miterlimit: 4; fill: rgb(241,81,86); fill-rule: nonzero; opacity: 1;" vector-effect="non-scaling-stroke"  transform=" translate(-285.1, -740.73)" d="M 287.422 726.731 L 271.1 738.29 C 275.05400000000003 743.872 279.245 749.404 283.559 754.731 L 299.10200000000003 742.145 C 295.058 737.151 291.128 731.965 287.422 726.731 z" stroke-linecap="round" />
</g>
		<g transform="matrix(0.15 0 0 0.15 -41 -42.99)" id="KzYEa-IekXd3zSrW9D03q"  >
<path style="stroke: none; stroke-width: 1; stroke-dasharray: none; stroke-linecap: butt; stroke-dashoffset: 0; stroke-linejoin: miter; stroke-miterlimit: 4; fill: rgb(241,81,86); fill-rule: nonzero; opacity: 1;" vector-effect="non-scaling-stroke"  transform=" translate(-245.59, -437.2)" d="M 258.635 432.328 L 240.384 424.149 C 237.577 430.412 234.94199999999998 436.849 232.551 443.28 L 251.297 450.24899999999997 C 253.537 444.225 256.006 438.195 258.635 432.328 z" stroke-linecap="round" />
</g>
		<g transform="matrix(0.15 0 0 0.15 -35.23 -53.11)" id="Zy_Wh-zEY_rUgvcZIU9Qz"  >
<path style="stroke: none; stroke-width: 1; stroke-dasharray: none; stroke-linecap: butt; stroke-dashoffset: 0; stroke-linejoin: miter; stroke-miterlimit: 4; fill: rgb(241,81,86); fill-rule: nonzero; opacity: 1;" vector-effect="non-scaling-stroke"  transform=" translate(-285.07, -367.96)" d="M 299.077 366.534 L 283.533 353.949 C 279.219 359.278 275.024 364.815 271.06600000000003 370.406 L 287.39000000000004 381.962 C 291.101 376.72 295.033 371.529 299.077 366.534 z" stroke-linecap="round" />
</g>
		<g transform="matrix(0.15 0 0 0.15 -38.44 -48.24)" id="I8Qj7blaw5P5BpWf6jXPT"  >
<path style="stroke: none; stroke-width: 1; stroke-dasharray: none; stroke-linecap: butt; stroke-dashoffset: 0; stroke-linejoin: miter; stroke-miterlimit: 4; fill: rgb(241,81,86); fill-rule: nonzero; opacity: 1;" vector-effect="non-scaling-stroke"  transform=" translate(-263.08, -401.28)" d="M 276.724 398.115 L 259.687 387.639 C 256.093 393.48400000000004 252.64600000000002 399.52 249.443 405.57800000000003 L 267.124 414.927 C 270.125 409.249 273.355 403.593 276.724 398.115 z" stroke-linecap="round" />
</g>
		<g transform="matrix(0.15 0 0 0.15 -31.41 -57.52)" id="rtD7gnqzP5OoKKrZkIsrv"  >
<path style="stroke: none; stroke-width: 1; stroke-dasharray: none; stroke-linecap: butt; stroke-dashoffset: 0; stroke-linejoin: miter; stroke-miterlimit: 4; fill: rgb(241,81,86); fill-rule: nonzero; opacity: 1;" vector-effect="non-scaling-stroke"  transform=" translate(-311.17, -337.76)" d="M 325.303 338.099 L 311.503 323.622 C 306.542 328.351 301.673 333.301 297.031 338.333 L 311.733 351.89300000000003 C 316.085 347.174 320.651 342.533 325.303 338.099 z" stroke-linecap="round" />
</g>
		<g transform="matrix(0.15 0 0 0.15 -42.85 -37.46)" id="k9T5OcHYnMNoVMjX8bHWm"  >
<path style="stroke: none; stroke-width: 1; stroke-dasharray: none; stroke-linecap: butt; stroke-dashoffset: 0; stroke-linejoin: miter; stroke-miterlimit: 4; fill: rgb(241,81,86); fill-rule: nonzero; opacity: 1;" vector-effect="non-scaling-stroke"  transform=" translate(-232.94, -475.07)" d="M 245.153 468.586 L 225.992 462.854 C 224.03 469.41499999999996 222.25699999999998 476.12899999999996 220.724 482.813 L 240.218 487.284 C 241.654 481.021 243.314 474.731 245.153 468.586 z" stroke-linecap="round" />
</g>
		<g transform="matrix(0.15 0 0 0.15 -31.41 5.76)" id="jzfvPAsKvd-nFbjxiclJL"  >
<path style="stroke: none; stroke-width: 1; stroke-dasharray: none; stroke-linecap: butt; stroke-dashoffset: 0; stroke-linejoin: miter; stroke-miterlimit: 4; fill: rgb(241,81,86); fill-rule: nonzero; opacity: 1;" vector-effect="non-scaling-stroke"  transform=" translate(-311.19, -770.91)" d="M 311.753 756.777 L 297.053 770.339 C 301.699 775.374 306.568 780.3230000000001 311.526 785.048 L 325.324 770.569 C 320.675 766.14 316.109 761.499 311.753 756.777 z" stroke-linecap="round" />
</g>
		<g transform="matrix(0.15 0 0 0.15 -43.96 -31.74)" id="qvvSFdV0b43mOpZHjwgc3"  >
<path style="stroke: none; stroke-width: 1; stroke-dasharray: none; stroke-linecap: butt; stroke-dashoffset: 0; stroke-linejoin: miter; stroke-miterlimit: 4; fill: rgb(241,81,86); fill-rule: nonzero; opacity: 1;" vector-effect="non-scaling-stroke"  transform=" translate(-225.32, -514.26)" d="M 236.513 506.261 L 216.769 503.07000000000005 C 215.67600000000002 509.82700000000006 214.79 516.7130000000001 214.136 523.5360000000001 L 234.04399999999998 525.446 C 234.658 519.049 235.488 512.595 236.513 506.261 z" stroke-linecap="round" />
</g>
		<g transform="matrix(0.15 0 0 0.15 -42.84 -14.27)" id="Ltk5101DFL4A3f0rt3vFm"  >
<path style="stroke: none; stroke-width: 1; stroke-dasharray: none; stroke-linecap: butt; stroke-dashoffset: 0; stroke-linejoin: miter; stroke-miterlimit: 4; fill: rgb(241,81,86); fill-rule: nonzero; opacity: 1;" vector-effect="non-scaling-stroke"  transform=" translate(-233, -633.79)" d="M 240.267 621.574 L 220.776 626.0559999999999 C 222.312 632.732 224.089 639.4459999999999 226.05800000000002 646.012 L 245.21500000000003 640.266 C 243.37 634.116 241.705 627.827 240.267 621.574 z" stroke-linecap="round" />
</g>
		<g transform="matrix(0.15 0 0 0.15 -11.54 17.52)" id="7M6irduLhF0gZ0hXJ-CRZ"  >
<path style="stroke: none; stroke-width: 1; stroke-dasharray: none; stroke-linecap: butt; stroke-dashoffset: 0; stroke-linejoin: miter; stroke-miterlimit: 4; fill: rgb(241,81,86); fill-rule: nonzero; opacity: 1;" vector-effect="non-scaling-stroke"  transform=" translate(-447.22, -851.4)" d="M 434.885 858.131 C 441.414 860.203 448.099 862.086 454.756 863.728 L 459.546 844.31 C 453.31 842.7719999999999 447.048 841.0079999999999 440.93399999999997 839.069 L 434.885 858.131 z" stroke-linecap="round" />
</g>
		<g transform="matrix(0.17 0 0 0.17 -27.36 -61.11)" id="r7PGYarmixrzmANsK0bXY"  >
<path style="stroke: none; stroke-width: 1; stroke-dasharray: none; stroke-linecap: butt; stroke-dashoffset: 0; stroke-linejoin: miter; stroke-miterlimit: 4; fill: rgb(241,81,86); fill-rule: nonzero; opacity: 1;" vector-effect="non-scaling-stroke"  transform=" translate(-340.92, -311.18)" d="M 354.949 313.279 L 343.12600000000003 297.148 C 337.60600000000005 301.194 332.14300000000003 305.476 326.889 309.875 L 339.728 325.21 C 344.654 321.085 349.775 317.072 354.949 313.279 z" stroke-linecap="round" />
</g>
		<g transform="matrix(0.15 0 0 0.15 0.01 19.19)" id="LCOjOgDSuUzBv_Lk6TTSk"  >
<path style="stroke: none; stroke-width: 1; stroke-dasharray: none; stroke-linecap: butt; stroke-dashoffset: 0; stroke-linejoin: miter; stroke-miterlimit: 4; fill: rgb(241,81,86); fill-rule: nonzero; opacity: 1;" vector-effect="non-scaling-stroke"  transform=" translate(-526.25, -862.82)" d="M 516.885 852.648 L 515.934 872.625 C 521.036 872.868 526.216 872.991 531.334 872.991 C 533.079 872.991 534.8209999999999 872.977 536.56 872.949 L 536.236 852.9509999999999 C 529.82 853.056 523.301 852.953 516.885 852.648 z" stroke-linecap="round" />
</g>
		<g transform="matrix(0.15 0 0 0.15 -5.83 18.73)" id="bsWr7AunTlxk3dbN_FgmA"  >
<path style="stroke: none; stroke-width: 1; stroke-dasharray: none; stroke-linecap: butt; stroke-dashoffset: 0; stroke-linejoin: miter; stroke-miterlimit: 4; fill: rgb(241,81,86); fill-rule: nonzero; opacity: 1;" vector-effect="non-scaling-stroke"  transform=" translate(-486.27, -859.66)" d="M 474.945 868.016 C 481.677 869.2189999999999 488.549 870.218 495.36899999999997 870.9839999999999 L 497.601 851.1089999999999 C 491.21 850.391 484.771 849.4559999999999 478.463 848.329 L 474.945 868.016 z" stroke-linecap="round" />
</g>
		<g transform="matrix(0.15 0 0 0.15 -27.06 9.65)" id="liSAYnNeMMWJhEZyl7pzU"  >
<path style="stroke: none; stroke-width: 1; stroke-dasharray: none; stroke-linecap: butt; stroke-dashoffset: 0; stroke-linejoin: miter; stroke-miterlimit: 4; fill: rgb(241,81,86); fill-rule: nonzero; opacity: 1;" vector-effect="non-scaling-stroke"  transform=" translate(-340.95, -797.5)" d="M 326.918 798.8 C 332.174 803.198 337.642 807.483 343.168 811.5319999999999 L 354.98900000000003 795.3989999999999 C 349.80800000000005 791.6029999999998 344.682 787.5859999999999 339.75500000000005 783.4609999999999 L 326.918 798.8 z" stroke-linecap="round" />
</g>
		<g transform="matrix(0.19 0 0 0.19 -21.66 -65.3)" id="xqOYomzha7oXEvJRkvTdl"  >
<path style="stroke: none; stroke-width: 1; stroke-dasharray: none; stroke-linecap: butt; stroke-dashoffset: 0; stroke-linejoin: miter; stroke-miterlimit: 4; fill: rgb(241,81,86); fill-rule: nonzero; opacity: 1;" vector-effect="non-scaling-stroke"  transform=" translate(-373.83, -288.66)" d="M 387.525 292.493 L 377.88 274.972 C 371.889 278.27 365.92199999999997 281.811 360.145 285.49699999999996 L 370.90299999999996 302.35699999999997 C 376.318 298.902 381.91 295.583 387.525 292.493 z" stroke-linecap="round" />
</g>
		<g transform="matrix(0.15 0 0 0.15 -17.04 15.58)" id="cIgGbZ60ZQvn_Y6V84kmP"  >
<path style="stroke: none; stroke-width: 1; stroke-dasharray: none; stroke-linecap: butt; stroke-dashoffset: 0; stroke-linejoin: miter; stroke-miterlimit: 4; fill: rgb(241,81,86); fill-rule: nonzero; opacity: 1;" vector-effect="non-scaling-stroke"  transform=" translate(-409.53, -838.11)" d="M 396.396 843.094 C 402.617 846.005 409.00800000000004 848.7460000000001 415.392 851.24 L 422.67 832.611 C 416.69 830.274 410.702 827.707 404.873 824.978 L 396.396 843.094 z" stroke-linecap="round" />
</g>
		<g transform="matrix(0.15 0 0 0.15 -22.25 12.94)" id="Gyuyb-O39iZfYKqO0_Ym7"  >
<path style="stroke: none; stroke-width: 1; stroke-dasharray: none; stroke-linecap: butt; stroke-dashoffset: 0; stroke-linejoin: miter; stroke-miterlimit: 4; fill: rgb(241,81,86); fill-rule: nonzero; opacity: 1;" vector-effect="non-scaling-stroke"  transform=" translate(-373.91, -820.03)" d="M 360.211 823.193 C 365.995 826.881 371.97200000000004 830.4259999999999 377.978 833.7289999999999 L 387.616 816.204 C 381.989 813.1089999999999 376.387 809.7869999999999 370.966 806.3299999999999 L 360.211 823.193 z" stroke-linecap="round" />
</g>
		<g transform="matrix(0.15 0 0 0.15 4.53 -38.45)" id="Kb2NplfpCENG7GHWJ1tcA"  >
<path style="stroke: none; stroke-width: 1; stroke-dasharray: none; stroke-linecap: butt; stroke-dashoffset: 0; stroke-linejoin: miter; stroke-miterlimit: 4; fill: rgb(241,81,86); fill-rule: nonzero; opacity: 1;" vector-effect="non-scaling-stroke"  transform=" translate(-557.15, -468.3)" d="M 472.035 570.004 C 473.877 572.4 478.18800000000005 576.422 486.369 576.422 C 506.52500000000003 576.422 545.609 549.761 565.791 515.388 C 575.8180000000001 498.30800000000005 583.4300000000001 498.30800000000005 587.0870000000001 498.30800000000005 C 591.123 498.30800000000005 595.7730000000001 499.40200000000004 600.695 500.56100000000004 C 606.782 501.99300000000005 613.6800000000001 503.617 621.216 503.61600000000004 C 628.172 503.61500000000007 634.61 502.25700000000006 640.896 499.463 C 650.803 495.06 657.2919999999999 488.90700000000004 660.18 481.17600000000004 C 664.9699999999999 468.355 658.7199999999999 454.99000000000007 653.2059999999999 443.19900000000007 C 650.3519999999999 437.0970000000001 647.656 431.3330000000001 646.6309999999999 426.32000000000005 C 644.2639999999999 414.74700000000007 636.3879999999998 400.951 612.3119999999999 400.951 C 604.7409999999999 400.951 596.9509999999999 402.25 590.0779999999999 403.39500000000004 L 589.6909999999999 403.46000000000004 C 588.3759999999999 403.67900000000003 587.2059999999999 403.79 586.2119999999999 403.79 C 584.6189999999999 403.79 584.0689999999998 403.507 584.0599999999998 403.507 C 583.0099999999999 402.504 582.2069999999999 397.208 581.7269999999999 394.044 C 581.5579999999999 392.93 581.3869999999998 391.805 581.1999999999998 390.68 C 578.9619999999998 377.25100000000003 573.3189999999998 363.15 548.4399999999998 360.385 C 547.1769999999998 360.245 545.9089999999999 360.174 544.6689999999999 360.174 C 528.0099999999999 360.174 516.2869999999999 371.846 495.00599999999986 393.036 C 488.54299999999984 399.471 481.21799999999985 406.765 472.4569999999999 415.064 C 455.8499999999999 430.797 449.66199999999986 444.009 453.53999999999985 455.454 C 456.46699999999987 464.09000000000003 464.12599999999986 468.348 470.1899999999998 470.414 C 471.9359999999998 486.97499999999997 475.5799999999998 529.591 469.6709999999998 551.748 C 467.678 559.226 468.473 565.367 472.035 570.004 z M 472.481 449.033 C 472.464 448.98400000000004 471.517 443.505 486.211 429.584 C 495.153 421.112 502.572 413.726 509.117 407.209 C 526.624 389.777 536.267 380.174 544.668 380.174 C 545.18 380.174 545.69 380.203 546.23 380.263 C 558.897 381.66999999999996 560.056 385.48199999999997 561.47 393.96799999999996 C 561.642 394.99699999999996 561.797 396.02599999999995 561.952 397.044 C 563.37 406.39099999999996 566.01 423.78999999999996 586.211 423.78999999999996 C 588.304 423.78999999999996 590.58 423.587 592.9780000000001 423.18699999999995 L 593.3670000000001 423.12299999999993 C 599.773 422.05499999999995 606.3960000000001 420.9509999999999 612.3120000000001 420.9509999999999 C 624.1400000000001 420.9509999999999 626.0270000000002 425.3869999999999 627.0380000000001 430.3279999999999 C 628.5380000000001 437.66099999999994 631.8690000000001 444.78399999999993 635.0900000000001 451.6719999999999 C 639.1250000000001 460.2989999999999 643.2970000000001 469.2209999999999 641.4450000000002 474.17599999999993 C 640.5070000000002 476.68699999999995 637.5900000000001 479.04499999999996 632.7730000000001 481.1859999999999 C 629.0450000000002 482.8429999999999 625.3730000000002 483.6149999999999 621.2150000000001 483.6149999999999 C 616.0010000000001 483.6149999999999 610.7920000000001 482.3889999999999 605.2770000000002 481.09199999999987 C 599.4610000000001 479.72299999999984 593.4450000000002 478.3079999999999 587.0880000000002 478.3079999999999 C 571.5890000000002 478.3079999999999 559.3410000000002 486.8719999999999 548.5440000000002 505.26099999999985 C 532.4930000000002 532.6009999999999 502.3540000000002 553.1359999999999 489.2150000000002 556.0629999999999 C 497.2710000000002 524.2819999999999 489.5870000000002 463.63299999999987 489.2530000000002 461.04499999999985 L 488.3060000000002 453.2139999999998 L 480.44700000000023 452.38699999999983 C 476.838 451.957 472.835 450.103 472.481 449.033 z" stroke-linecap="round" />
</g>
		<g transform="matrix(0.15 0 0 0.15 -20.73 -14.9)" id="NcyS09uyyT23CxOqQzi61"  >
<path style="stroke: none; stroke-width: 1; stroke-dasharray: none; stroke-linecap: butt; stroke-dashoffset: 0; stroke-linejoin: miter; stroke-miterlimit: 4; fill: rgb(241,81,86); fill-rule: nonzero; opacity: 1;" vector-effect="non-scaling-stroke"  transform=" translate(-384.31, -629.46)" d="M 364.177 559.13 L 361.50600000000003 556.687 L 357.951 556.441 C 357.951 556.441 357.218 556.3910000000001 355.913 556.3910000000001 C 336 556.3910000000001 312.832 565.8410000000001 307.528 592.364 C 301.142 624.291 314.889 636.895 339.84400000000005 659.777 C 343.2130000000001 662.8670000000001 346.69800000000004 666.061 350.494 669.62 C 356.084 674.861 360.348 679.151 363.77500000000003 682.599 C 381.237 700.1650000000001 384.22400000000005 700.686 418.13700000000006 702.041 C 420.2540000000001 702.1260000000001 422.51000000000005 702.216 424.91700000000003 702.316 C 428.495 702.465 431.583 702.538 434.35900000000004 702.538 C 446.357 702.538 454.75700000000006 701.297 459.56100000000004 695.117 C 464.312 689.006 462.53400000000005 682.0219999999999 461.10600000000005 676.4119999999999 C 459.63200000000006 670.6229999999999 457.96200000000005 664.0619999999999 460.82000000000005 655.487 C 463.38400000000007 647.795 462.982 641.014 459.62600000000003 635.336 C 453.261 624.567 439.232 621.993 422.987 619.013 C 408.821 616.414 392.76500000000004 613.4680000000001 383.14300000000003 604.869 C 379.68600000000004 601.779 378.07300000000004 599.822 377.341 598.765 C 377.37 598.7189999999999 377.40000000000003 598.675 377.427 598.632 C 385.396 586.376 381.804 575.67 364.177 559.13 z M 419.378 638.684 C 427.346 640.146 440.68399999999997 642.593 442.408 645.511 C 442.49100000000004 645.6519999999999 442.653 646.7429999999999 441.846 649.1619999999999 C 437.13100000000003 663.3069999999999 440.00600000000003 674.5989999999999 441.723 681.3459999999999 C 441.793 681.6219999999998 441.869 681.9169999999999 441.945 682.2189999999999 C 440.294 682.3939999999999 437.87 682.5369999999999 434.359 682.5369999999999 C 431.863 682.5369999999999 429.04699999999997 682.4709999999999 425.75 682.333 C 423.331 682.232 421.064 682.1419999999999 418.936 682.057 C 404.14099999999996 681.465 395.991 681.139 391.428 679.5600000000001 C 387.829 678.3140000000001 385.327 675.9100000000001 377.959 668.4970000000001 C 374.422 664.9390000000001 370.02 660.5110000000001 364.172 655.0290000000001 C 360.295 651.3930000000001 356.61 648.0150000000001 353.36 645.0350000000001 C 328.273 622.0330000000001 323.103 616.4610000000001 327.13800000000003 596.2850000000001 C 330.36300000000006 580.162 344.98400000000004 576.9530000000001 353.333 576.4660000000001 C 359.461 582.6050000000001 360.978 585.6520000000002 361.343 586.6500000000001 C 361.153 586.9700000000001 360.879 587.392 360.658 587.7310000000001 C 353.687 598.4530000000001 356.34000000000003 607.7390000000001 369.815 619.7810000000001 C 383.628 632.124 403.451 635.762 419.378 638.684 z" stroke-linecap="round" />
</g>
		<g transform="matrix(0.15 0 0 0.15 0.75 -25.7)" id="gKyXrqyILtE5BeeivMv_K"  >
<path style="stroke: none; stroke-width: 1; stroke-dasharray: none; stroke-linecap: butt; stroke-dashoffset: 0; stroke-linejoin: miter; stroke-miterlimit: 4; fill: rgb(241,81,86); fill-rule: nonzero; opacity: 1;" vector-effect="non-scaling-stroke"  transform=" translate(-531.33, -555.55)" d="M 712.354 373.305 C 679.572 340.523 639.4590000000001 317.742 595.7170000000001 306.459 L 588.3950000000001 325.314 C 644.133 339.206 692.0910000000001 372.96900000000005 724.291 418.607 C 722.2220000000001 430.45000000000005 715.7800000000001 465.362 707.8480000000001 489.16200000000003 C 701.893 507.02400000000006 686.907 511.242 673.6840000000001 514.964 C 668.9900000000001 516.2850000000001 664.5550000000001 517.533 660.863 519.3800000000001 C 644.3510000000001 527.6360000000001 606.4870000000001 550.0660000000001 611.47 579.9680000000001 C 612.889 588.4780000000001 616.629 594.1940000000001 622.587 596.9580000000001 C 633.485 602.0150000000001 645.886 594.6290000000001 660.245 586.08 C 666.511 582.35 672.99 578.493 679.496 575.515 C 679.587 575.473 689.668 573.131 717.8729999999999 610.706 C 730.261 627.208 741.0559999999999 644.7330000000001 745.8209999999999 652.711 C 741.5539999999999 661.975 736.7029999999999 670.914 731.3179999999999 679.487 L 692.3649999999999 659.536 C 688.8429999999998 657.512 666.127 644.661 653.6099999999999 642.473 C 645.5799999999999 641.067 635.3809999999999 644.555 619.3969999999999 650.3589999999999 C 609.1139999999999 654.0919999999999 597.459 658.324 591.334 658.324 C 580.4989999999999 658.324 569.8919999999999 662.418 560.6579999999999 670.1619999999999 C 550.887 678.3559999999999 543.2359999999999 690.064 537.9169999999999 704.9609999999999 C 530.9309999999999 724.5229999999999 529.54 724.9089999999999 506.3219999999999 731.3739999999999 C 502.8429999999999 732.3419999999999 498.9019999999999 733.439 494.5119999999999 734.7299999999999 C 469.7529999999999 742.012 458.5039999999999 761.7899999999998 454.39999999999986 777.4369999999999 C 361.92899999999986 745.4609999999999 295.33399999999983 657.5289999999999 295.33399999999983 554.3239999999998 C 295.33399999999983 528.6369999999998 299.46099999999984 503.89799999999985 307.08399999999983 480.73199999999986 C 317.35199999999986 486.07299999999987 332.9689999999998 492.81599999999986 346.3919999999998 492.81599999999986 C 348.8519999999998 492.81599999999986 351.23799999999983 492.5889999999999 353.50399999999985 492.08599999999984 C 368.0529999999998 488.85299999999984 416.18399999999986 476.53999999999985 424.69799999999987 453.83599999999984 C 428.1779999999999 444.55499999999984 429.25599999999986 432.16899999999987 430.29699999999985 420.19099999999986 C 431.22199999999987 409.55399999999986 432.1779999999998 398.55499999999984 434.69799999999987 391.83599999999984 C 438.80199999999985 380.89299999999986 452.61399999999986 368.12399999999985 457.5819999999999 364.13299999999987 L 461.33499999999987 361.13099999999986 L 461.33499999999987 328.94899999999984 C 471.60299999999984 325.75399999999985 482.16699999999986 323.23399999999987 492.97799999999984 321.45899999999983 L 495.83499999999987 300.7699999999998 C 440.91899999999987 308.3419999999998 390.1949999999999 333.4259999999998 350.3149999999998 373.3059999999998 C 301.96299999999985 421.6579999999998 275.3349999999998 485.9459999999998 275.3349999999998 554.3259999999998 C 275.3349999999998 622.7059999999998 301.9629999999998 686.9929999999998 350.3149999999998 735.3459999999998 C 398.6669999999998 783.6979999999998 462.95399999999984 810.3259999999998 531.3349999999998 810.3259999999998 C 599.7159999999998 810.3259999999998 664.0019999999998 783.6969999999998 712.3549999999998 735.3459999999998 C 760.7069999999998 686.9929999999998 787.3349999999998 622.7059999999998 787.3349999999998 554.3259999999998 C 787.3349999999998 485.9459999999998 760.705 421.657 712.354 373.305 z M 441.334 336.188 L 441.334 351.698 C 434.627 357.63899999999995 421.251 370.731 415.971 384.813 C 412.491 394.094 411.413 406.48 410.372 418.45799999999997 C 409.447 429.09499999999997 408.49100000000004 440.094 405.971 446.813 C 403.06 454.575 377.046 466.36699999999996 349.165 472.563 C 341.331 474.301 325.964 468.23199999999997 314.201 461.882 C 338.443 405.164 384.289 359.807 441.334 336.188 z M 733.969 598.832 C 707.2120000000001 563.153 687.254 549.966 671.172 557.329 C 663.686 560.757 656.423 565.0799999999999 650.015 568.894 C 644.157 572.3820000000001 635.639 577.453 631.581 578.431 C 631.456 577.9960000000001 631.321 577.422 631.198 576.6800000000001 C 628.915 562.98 650.569 546.8860000000001 669.805 537.268 C 671.8 536.2710000000001 675.347 535.272 679.101 534.215 C 693.468 530.172 717.514 523.403 726.821 495.48600000000005 C 732.1120000000001 479.61300000000006 736.673 459.65100000000007 739.869 443.9150000000001 C 757.394 476.87700000000007 767.3340000000001 514.4590000000001 767.3340000000001 554.3240000000001 C 767.3340000000001 580.6100000000001 763.0100000000001 605.9040000000001 755.043 629.537 C 749.452 620.728 742.094 609.666 733.969 598.832 z M 531.334 790.324 C 511.42599999999993 790.324 492.08899999999994 787.8349999999999 473.6089999999999 783.1719999999999 C 475.80499999999995 773.9889999999999 482.10799999999995 759.2259999999999 500.15599999999995 753.9179999999999 C 504.40599999999995 752.6679999999999 508.27399999999994 751.5909999999999 511.6859999999999 750.6409999999998 C 537.9659999999999 743.3249999999998 546.756 739.6749999999998 556.751 711.6879999999999 C 565.5369999999999 687.0889999999998 580.376 678.3249999999998 591.334 678.3249999999998 C 600.978 678.3249999999998 613.8119999999999 673.6659999999998 626.223 669.1589999999998 C 634.3589999999999 666.2059999999998 646.651 661.7459999999998 650.1669999999999 662.1759999999998 C 657.218 663.4079999999998 673.7959999999999 671.9139999999998 682.5899999999999 676.9869999999999 L 719.882 696.0979999999998 C 676.774 753.283 608.301 790.324 531.334 790.324 z" stroke-linecap="round" />
</g>
		<g transform="matrix(0.68 0.56 -0.56 0.68 3.83 -71.32)" id="1X5pF31HvpnL8-llK54hl"  >
<path style="stroke: none; stroke-width: 1; stroke-dasharray: none; stroke-linecap: butt; stroke-dashoffset: 0; stroke-linejoin: miter; stroke-miterlimit: 4; fill: rgb(241,81,86); fill-rule: nonzero; opacity: 1;" vector-effect="non-scaling-stroke"  transform=" translate(-12, -12)" d="M 17 19.5 C 17.828064 19.4990845 18.4990845 18.828064 18.5 18 C 18.5 17.1715698 17.8284302 16.5 17 16.5 C 16.1715698 16.5 15.5 17.1715698 15.5 18 C 15.5 18.8284302 16.1715698 19.5 17 19.5 z M 17 17.5 C 17.2759399 17.5005493 17.4994507 17.7240601 17.5 18 C 17.5 18.276123 17.276123 18.5 17 18.5 C 16.723877 18.5 16.5 18.276123 16.5 18 C 16.5 17.723877 16.723877 17.5 17 17.5 z M 17 15.5 C 17.828064 15.4990845 18.4990845 14.828064 18.5 14 C 18.5 13.1715698 17.8284302 12.5 17 12.5 C 16.1715698 12.5 15.5 13.1715698 15.5 14 C 15.5 14.8284302 16.1715698 15.5 17 15.5 z M 17 13.5 C 17.2759399 13.5005493 17.4994507 13.7240601 17.5 14 C 17.5 14.276123 17.276123 14.5 17 14.5 C 16.723877 14.5 16.5 14.276123 16.5 14 C 16.5 13.723877 16.723877 13.5 17 13.5 z M 19.5 3 L 17.5 3 L 17.5 1.5 C 17.5 1.223877 17.276123 1 17 1 C 16.723877 1 16.5 1.2238769999999999 16.5 1.5 L 16.5 3 L 7.5 3 L 7.5 1.5 C 7.5 1.223877 7.276123 1 7 1 C 6.723877 1 6.5 1.223877 6.5 1.5 L 6.5 3 L 4.5 3 C 3.119812 3.0012817 2.0012817 4.119812 2 5.5 L 2 20.5 C 2.0012817 21.880188 3.119812 22.9987183 4.5 23 L 19.5 23 C 20.880188 22.9987183 21.9987183 21.880188 22 20.5 L 22 5.5 C 21.9987183 4.119812 20.880188 3.0012817 19.5 3 z M 21 20.5 C 20.9990845 21.328064 20.328064 21.9990845 19.5 22 L 4.5 22 C 3.671936 21.9990845 3.0009155 21.328064 3 20.5 L 3 10 L 21 10 L 21 20.5 z M 21 9 L 3 9 L 3 5.5 C 3.0009155 4.671936 3.671936 4.0009155 4.5 4 L 6.5 4 L 6.5 5.5 C 6.5 5.5001831 6.5 5.5003662 6.5 5.5006104 C 6.5001831 5.7765503 6.723999 6.0001831 7 6 C 7.0001831 6 7.0003662 6 7.0006104 6 C 7.2765503 5.9998169 7.5001831 5.776001 7.5 5.5 L 7.5 4 L 16.5 4 L 16.5 5.5 C 16.5 5.5001831 16.5 5.5003662 16.5 5.5006104 C 16.5001831 5.7765503 16.723999 6.0001831 17 6 C 17.0001831 6 17.0003662 6 17.0006104 6 C 17.2765503 5.9998169 17.5001831 5.776001 17.5 5.5 L 17.5 4 L 19.5 4 C 20.328064 4.0009155 20.9990845 4.671936 21 5.5 L 21 9 z M 7 19.5 C 7.828064 19.4990845 8.4990845 18.828064 8.5 18 C 8.5 17.1715698 7.8284302 16.5 7 16.5 C 6.1715698 16.5 5.5 17.1715698 5.5 18 C 5.5 18.8284302 6.1715698 19.5 7 19.5 z M 7 17.5 C 7.2759399 17.5005493 7.4994507 17.7240601 7.5 18 C 7.5 18.276123 7.276123 18.5 7 18.5 C 6.723877 18.5 6.5 18.276123 6.5 18 C 6.5 17.723877 6.723877 17.5 7 17.5 z M 12 19.5 C 12.828064 19.4990845 13.4990845 18.828064 13.5 18 C 13.5 17.1715698 12.8284302 16.5 12 16.5 C 11.1715698 16.5 10.5 17.1715698 10.5 18 C 10.5 18.8284302 11.1715698 19.5 12 19.5 z M 12 17.5 C 12.275939900000001 17.5005493 12.4994507 17.7240601 12.5 18 C 12.5 18.276123 12.276123 18.5 12 18.5 C 11.723877 18.5 11.5 18.276123 11.5 18 C 11.5 17.723877 11.723877 17.5 12 17.5 z M 12 15.5 C 12.828064 15.4990845 13.4990845 14.828064 13.5 14 C 13.5 13.1715698 12.8284302 12.5 12 12.5 C 11.1715698 12.5 10.5 13.1715698 10.5 14 C 10.5 14.8284302 11.1715698 15.5 12 15.5 z M 12 13.5 C 12.275939900000001 13.5005493 12.4994507 13.7240601 12.5 14 C 12.5 14.276123 12.276123 14.5 12 14.5 C 11.723877 14.5 11.5 14.276123 11.5 14 C 11.5 13.723877 11.723877 13.5 12 13.5 z M 7 15.5 C 7.828064 15.4990845 8.4990845 14.828064 8.5 14 C 8.5 13.1715698 7.8284302 12.5 7 12.5 C 6.1715698 12.5 5.5 13.1715698 5.5 14 C 5.5 14.8284302 6.1715698 15.5 7 15.5 z M 7 13.5 C 7.2759399 13.5005493 7.4994507 13.7240601 7.5 14 C 7.5 14.276123 7.276123 14.5 7 14.5 C 6.723877 14.5 6.5 14.276123 6.5 14 C 6.5 13.723877 6.723877 13.5 7 13.5 z" stroke-linecap="round" />
</g>
		<g transform="matrix(0.26 0.04 -0.04 0.26 -14.03 -68.9)" id="REVhvUGd4YDJRd-9Wa6yJ"  >
<path style="stroke: none; stroke-width: 1; stroke-dasharray: none; stroke-linecap: butt; stroke-dashoffset: 0; stroke-linejoin: miter; stroke-miterlimit: 4; fill: rgb(241,81,86); fill-rule: nonzero; opacity: 1;" vector-effect="non-scaling-stroke"  transform=" translate(-373.83, -288.66)" d="M 387.525 292.493 L 377.88 274.972 C 371.889 278.27 365.92199999999997 281.811 360.145 285.49699999999996 L 370.90299999999996 302.35699999999997 C 376.318 298.902 381.91 295.583 387.525 292.493 z" stroke-linecap="round" />
</g>
		<g transform="matrix(1.12 0 0 1.12 86.73 71.57)" id="TTFv1bSvw6cZYC4CIkEoT"  >
<path style="stroke: none; stroke-width: 1; stroke-dasharray: none; stroke-linecap: butt; stroke-dashoffset: 0; stroke-linejoin: miter; stroke-miterlimit: 4; fill: rgb(5,32,74); fill-rule: nonzero; opacity: 1;" vector-effect="non-scaling-stroke"  transform=" translate(-56.64, 17.62)" d="M 22.27 -35.62 L 29.76 -35.62 L 29.76 0 L 22.61 0 L 22.61 -2.98 Q 19.82 0.38 14.54 0.38 L 14.54 0.38 Q 10.9 0.38 7.94 -1.25 Q 4.99 -2.88 3.31 -5.9 Q 1.63 -8.93 1.63 -12.91 L 1.63 -12.91 Q 1.63 -16.9 3.31 -19.92 Q 4.99 -22.94 7.94 -24.58 Q 10.9 -26.21 14.54 -26.21 L 14.54 -26.21 Q 19.49 -26.21 22.27 -23.09 L 22.27 -23.09 L 22.27 -35.62 Z M 15.84 -5.76 Q 18.67 -5.76 20.54 -7.7 Q 22.42 -9.65 22.42 -12.91 L 22.42 -12.91 Q 22.42 -16.18 20.54 -18.12 Q 18.67 -20.06 15.84 -20.06 L 15.84 -20.06 Q 12.96 -20.06 11.09 -18.12 Q 9.22 -16.18 9.22 -12.91 L 9.22 -12.91 Q 9.22 -9.65 11.09 -7.7 Q 12.96 -5.76 15.84 -5.76 L 15.84 -5.76 Z M 47.086 -26.21 Q 53.086 -26.21 56.306 -23.35 Q 59.516000000000005 -20.5 59.516000000000005 -14.74 L 59.516000000000005 -14.74 L 59.516000000000005 0 L 52.516000000000005 0 L 52.516000000000005 -3.22 Q 50.396 0.38 44.636 0.38 L 44.636 0.38 Q 41.666 0.38 39.476 -0.62 Q 37.296 -1.63 36.146 -3.41 Q 34.996 -5.18 34.996 -7.44 L 34.996 -7.44 Q 34.996 -11.04 37.706 -13.1 Q 40.416000000000004 -15.17 46.076 -15.17 L 46.076 -15.17 L 52.036 -15.17 Q 52.036 -17.62 50.546 -18.94 Q 49.056 -20.26 46.076 -20.26 L 46.076 -20.26 Q 44.016000000000005 -20.26 42.026 -19.61 Q 40.036 -18.96 38.636 -17.86 L 38.636 -17.86 L 35.956 -23.09 Q 38.066 -24.58 41.016 -25.39 Q 43.966 -26.21 47.086 -26.21 L 47.086 -26.21 Z M 46.516000000000005 -4.66 Q 48.436 -4.66 49.916 -5.54 Q 51.406000000000006 -6.43 52.036 -8.16 L 52.036 -8.16 L 52.036 -10.8 L 46.896 -10.8 Q 42.286 -10.8 42.286 -7.78 L 42.286 -7.78 Q 42.286 -6.34 43.416 -5.5 Q 44.546 -4.66 46.516000000000005 -4.66 L 46.516000000000005 -4.66 Z M 80.93200000000002 -6.53 L 82.94200000000001 -1.25 Q 81.84200000000001 -0.43 80.232 -0.02 Q 78.62200000000001 0.38 76.852 0.38 L 76.852 0.38 Q 72.242 0.38 69.72200000000001 -1.97 Q 67.20200000000001 -4.32 67.20200000000001 -8.88 L 67.20200000000001 -8.88 L 67.20200000000001 -19.49 L 63.21200000000001 -19.49 L 63.21200000000001 -25.25 L 67.20200000000001 -25.25 L 67.20200000000001 -31.54 L 74.69200000000001 -31.54 L 74.69200000000001 -25.25 L 81.12200000000001 -25.25 L 81.12200000000001 -19.49 L 74.69200000000001 -19.49 L 74.69200000000001 -8.98 Q 74.69200000000001 -7.34 75.53200000000001 -6.46 Q 76.37200000000001 -5.57 77.90200000000002 -5.57 L 77.90200000000002 -5.57 Q 79.68200000000002 -5.57 80.93200000000002 -6.53 L 80.93200000000002 -6.53 Z M 111.646 -12.82 Q 111.646 -12.67 111.506 -10.8 L 111.506 -10.8 L 91.96600000000001 -10.8 Q 92.496 -8.4 94.46600000000001 -7.01 Q 96.436 -5.62 99.356 -5.62 L 99.356 -5.62 Q 101.376 -5.62 102.936 -6.22 Q 104.49600000000001 -6.82 105.836 -8.11 L 105.836 -8.11 L 109.826 -3.79 Q 106.176 0.38 99.166 0.38 L 99.166 0.38 Q 94.796 0.38 91.436 -1.32 Q 88.076 -3.02 86.256 -6.05 Q 84.436 -9.07 84.436 -12.91 L 84.436 -12.91 Q 84.436 -16.7 86.236 -19.75 Q 88.036 -22.8 91.176 -24.5 Q 94.316 -26.21 98.206 -26.21 L 98.206 -26.21 Q 101.99600000000001 -26.21 105.076 -24.58 Q 108.146 -22.94 109.896 -19.9 Q 111.646 -16.85 111.646 -12.82 L 111.646 -12.82 Z M 98.256 -20.54 Q 95.71600000000001 -20.54 93.986 -19.1 Q 92.256 -17.66 91.876 -15.17 L 91.876 -15.17 L 104.596 -15.17 Q 104.206 -17.62 102.476 -19.08 Q 100.756 -20.54 98.256 -20.54 L 98.256 -20.54 Z" stroke-linecap="round" />
</g>
</g>
</g>
</svg>